<svg xmlns="http://www.w3.org/2000/svg" width="172" height="40" fill="none"><g fill="#fff" clip-path="url(#a)"><path fill-rule="evenodd" d="m10.752 20.883 9.97-5.23-9.97-5.211v10.441zM.784 15.652l9.968-5.21L.784 5.23v10.421z" clip-rule="evenodd"/><path fill-rule="evenodd" d="m10.752 10.442-9.968 5.21 9.968 5.231V10.442zm0 0 9.97-5.211L10.751 0v10.442z" clip-rule="evenodd"/><path fill-rule="evenodd" d="m20.721 5.23-9.969 5.212 9.97 5.21V5.231zM10.752 0 .784 5.23l9.968 5.212V0zm19.345 17.518h1.91l.184.02.185.02.166.02.165.04.185.04.143.04.165.063.142.062.143.063.122.083.123.062.122.083.123.102.102.103.103.083.102.122.103.103.083.102.082.123.063.102.063.123.062.122.063.123.04.123.02.142.04.122.02.143.02.142v.533l-.02.225-.063.225-.063.205-.082.225-.103.206-.142.165-.143.185-.102.122-.123.103-.122.103-.143.102-.165.103-.165.062-.186.083-.185.083.288.082.268.083.245.102.225.123.225.142.185.123.083.082.083.083.102.083.063.082.122.186.123.205.102.185.063.225.083.225.04.245.02.245.02.245-.02.225-.02.205-.02.205-.04.206-.063.185-.083.185-.062.185-.103.165-.102.186-.123.142-.122.165-.123.123-.142.142-.143.123-.185.122-.165.103-.103.04-.122.082-.166.04-.142.04-.185.04-.185.04-.186.04-.205.02-.532.082-.45.04-.328.02-.245.02h-1.006v-2.399h.513l.185-.02.185-.02.165-.04.166-.04.122-.04.123-.062.082-.083.103-.082.063-.083.062-.102.063-.103.04-.103.02-.122.02-.123.02-.142-.02-.103-.02-.122-.02-.103-.04-.102-.063-.103-.04-.082-.082-.083-.083-.083-.102-.082-.103-.063-.142-.04-.166-.04-.165-.04-.185-.02-.205-.02h-.493v-2.113h.225l.185-.02.165-.04.143-.02.142-.04.103-.04.102-.063.103-.062.063-.083.062-.063.063-.102.04-.103.04-.102.02-.103.02-.122v-.245l-.02-.103-.02-.103-.04-.102-.04-.103-.063-.082-.062-.083-.063-.063-.083-.062-.122-.063-.103-.04-.142-.04-.143-.04-.165-.02h-.41V17.51l-.009.008zm-4.943 0h4.943v2.257h-1.456v2.114h1.456v2.114h-1.456v2.256h1.456v2.4h-4.943v-11.14zm18.951 0h3.448v6.892l-.02.225-.02.248-.043.225-.04.245-.042.225-.06.228-.083.225-.082.206-.083.205-.123.205-.102.185-.143.205-.122.182-.165.166-.143.165-.165.162-.165.146-.183.142-.165.122-.165.103-.182.103-.166.082-.185.063-.265.103-.268.06-.287.062-.288.06-.308.043-.328.04h-.327l-.348.02h-.205l-.205-.02h-.228l-.205-.02h-.245l-.205-.04-.245-.023-.228-.02-.245-.04-.225-.043-.225-.04-.185-.04-.206-.082-.185-.063-.165-.06-.182-.082-.166-.103-.142-.082L38.63 28l-.143-.122-.145-.123-.142-.145-.146-.143-.122-.145-.143-.142-.102-.166-.123-.162-.102-.165-.083-.163-.063-.165-.082-.165-.04-.143-.083-.267-.06-.265-.062-.248-.04-.245-.043-.225-.02-.225-.02-.206v-6.85h3.445v7.012l.042.205.02.205.063.185.06.166.082.162.123.145.102.123.146.142.142.083.166.102.162.063.185.06.185.043.205.02.225.02.206-.02.205-.02.185-.043.185-.04.182-.083.146-.082.162-.103.125-.122.123-.123.103-.145.082-.163.06-.185.063-.185.04-.185.02-.225v-7.015zm5.129 7.445 3.282-.205.023.205.04.165.04.185.062.163.04.125.063.143.082.122.083.103.06.102.063.063.102.082.06.06.082.063.103.06.083.043.082.04.103.042.102.02.103.04.103.02.122.023.103.02h.43l.165-.02.163-.023.145-.04.122-.04.143-.063.102-.062.103-.08.102-.102.083-.083.063-.103.06-.102.042-.103.04-.102.02-.103v-.225l-.02-.103-.04-.102-.042-.103-.06-.082-.063-.103-.06-.082-.102-.083-.103-.083-.145-.102-.163-.08-.227-.083-.226-.082-.265-.063-.307-.08-.33-.082-.534-.123-.512-.145-.245-.083-.206-.08-.224-.082-.206-.083-.205-.082-.185-.083-.185-.103-.165-.08-.143-.102-.165-.102-.123-.103-.122-.103-.123-.102-.102-.103-.123-.125-.082-.123-.083-.122-.082-.123-.083-.122-.06-.145-.043-.123-.06-.142-.042-.146-.04-.142-.02-.145-.02-.163-.023-.165v-.162l.023-.206.02-.228.04-.182.043-.205.08-.205.082-.205.102-.185.123-.206.125-.185.143-.165.165-.182.182-.146.206-.142.205-.145.227-.123.246-.102.245-.123.287-.083.308-.06.328-.062.37-.063.37-.04.41-.02h.676l.268.02h.245l.225.02.228.043.225.04.225.04.205.043.205.04.185.062.185.083.163.06.185.082.165.083.143.082.142.103.145.102.123.103.123.123.122.122.103.142.102.146.103.142.082.146.063.162.083.165.06.185.062.183.06.185.043.205.02.205.04.205-3.24.185-.043-.185-.04-.142-.062-.165-.06-.163-.063-.125-.082-.103-.103-.122-.102-.083-.103-.08-.122-.062-.123-.063-.142-.04-.146-.04-.162-.023-.165-.02h-.451l-.145.02-.102.043-.103.02-.102.04-.103.063-.06.062-.083.06-.062.063-.04.083-.043.08-.04.082-.02.063-.02.082-.022.103.022.06.02.062.02.083.02.04.043.063.04.06.04.062.062.06.063.043.103.06.102.042.143.06.142.043.185.06.206.042.205.04.555.123.49.125.473.122.41.123.39.123.348.122.308.125.268.143.225.122.225.146.205.122.185.162.165.146.163.185.122.162.126.186.102.185.103.185.06.205.062.205.06.205.043.206.02.225v.492l-.04.265-.043.248-.06.245-.082.245-.103.248-.122.225-.146.225-.162.225-.165.205-.185.186-.206.185-.205.165-.225.162-.245.146-.268.102-.267.103-.285.103-.308.08-.35.062-.328.063-.37.04-.368.02h-.76l-.328-.02-.308-.02-.328-.02-.287-.043-.288-.04-.265-.063-.248-.06-.225-.082-.225-.083-.225-.082-.205-.103-.165-.103-.186-.122-.162-.122-.145-.123-.123-.145-.122-.143-.123-.145-.122-.162-.083-.146-.103-.182-.102-.145-.063-.186-.082-.162-.06-.185-.063-.185-.06-.186-.043-.205-.02-.205-.04-.205-.022-.205z" clip-rule="evenodd"/><path d="M64.661 17.518h-3.447v11.14h3.447v-11.14z"/><path fill-rule="evenodd" d="M67.163 17.518h3.222l4.205 6.154v-6.154h3.24v11.137h-3.24l-4.185-6.11v6.11h-3.242V17.518zm12.943 0h9.21v2.36h-5.763v1.783h5.333v2.276h-5.333v2.197h5.928v2.521h-9.375V17.518zm10.626 7.445 3.282-.205.04.205.023.165.04.185.063.163.04.125.082.143.06.122.083.103.062.102.083.063.08.082.062.06.103.063.083.06.082.043.103.04.08.042.102.02.103.04.102.02.126.023.122.02h.41l.163-.02.165-.023.142-.04.126-.04.142-.063.103-.062.122-.08.083-.102.083-.083.082-.103.04-.102.04-.103.043-.102.02-.103v-.225l-.02-.103-.043-.102-.04-.103-.04-.082-.082-.103-.063-.082-.083-.083-.122-.083-.143-.102-.165-.08-.205-.083-.245-.082-.268-.063-.288-.08-.347-.082-.533-.123-.513-.145-.225-.083-.228-.08-.225-.082-.205-.083-.205-.082-.185-.083-.183-.103-.145-.08-.162-.102-.146-.102-.142-.103-.123-.103-.125-.102-.103-.103-.102-.125-.103-.123-.08-.122-.082-.123-.083-.122-.062-.145-.04-.123-.063-.142-.04-.146-.02-.142-.042-.145-.02-.163v-.165l-.02-.162.02-.206.02-.228.042-.182.06-.205.063-.205.082-.205.103-.185.123-.206.122-.185.145-.165.183-.182.165-.146.205-.142.205-.145.225-.123.248-.102.245-.123.288-.083.328-.06.327-.062.35-.063.368-.04.41-.02h.678l.265.02h.248l.225.02.245.043.228.04.205.04.206.043.205.04.205.062.162.083.185.06.165.082.163.083.165.082.123.103.142.102.126.103.142.123.103.122.102.142.103.146.102.142.083.146.082.162.06.165.063.185.06.183.062.185.04.205.043.205.02.205-3.242.185-.04-.185-.04-.142-.043-.165-.06-.163-.082-.125-.083-.103-.082-.122-.123-.083-.102-.08-.123-.062-.122-.063-.146-.04-.142-.04-.165-.023-.143-.02h-.473l-.122.02-.123.043-.102.02-.103.04-.083.063-.082.062-.083.06-.06.063-.042.083-.04.08-.04.082-.023.063-.02.082v.163l.02.062.023.083.02.04.04.063.042.06.04.062.063.06.08.043.082.06.123.042.125.06.163.043.165.06.205.042.225.04.533.123.513.125.453.122.43.123.367.123.35.122.309.125.264.143.228.122.225.146.206.122.185.162.162.146.165.185.143.162.122.186.103.185.083.185.082.205.063.205.04.205.04.206.022.225v.492l-.042.265-.04.248-.063.245-.083.245-.102.248-.123.225-.142.225-.145.225-.183.205-.185.186-.185.185-.225.165-.225.162-.248.146-.265.102-.268.103-.288.103-.307.08-.328.062-.347.063-.37.04-.371.02h-.758l-.328-.02-.307-.02-.308-.02-.308-.043-.268-.04-.265-.063-.267-.06-.225-.082-.225-.083-.228-.082-.183-.103-.185-.103-.185-.122-.143-.122-.165-.123-.122-.145-.123-.143-.125-.145-.103-.162-.102-.146-.103-.182-.102-.145-.06-.186-.083-.162-.063-.185-.06-.185-.062-.186-.04-.205-.02-.205-.043-.205-.02-.205zm11.243 0 3.282-.205.04.205.019.165.043.185.06.163.063.125.06.143.062.122.083.103.082.102.06.063.083.082.083.06.082.063.08.06.083.043.102.04.083.042.122.02.083.04.102.02.123.023.122.02h.411l.165-.02.165-.023.143-.04.142-.04.125-.063.123-.062.103-.08.102-.102.06-.083.083-.103.042-.102.04-.103.04-.102.023-.103v-.225l-.023-.103-.04-.102-.04-.103-.042-.082-.06-.103-.083-.082-.083-.083-.122-.083-.145-.102-.163-.08-.205-.083-.248-.082-.265-.063-.287-.08-.328-.082-.556-.123-.512-.145-.226-.083-.225-.08-.225-.082-.205-.083-.205-.082-.165-.083-.185-.103-.163-.08-.165-.102-.142-.102-.146-.103-.122-.103-.123-.102-.102-.103-.103-.125-.082-.123-.103-.122-.083-.123-.059-.122-.063-.145-.06-.123-.063-.142-.04-.146-.022-.142-.04-.145v-.163l-.02-.165v-.368l.02-.228.04-.182.062-.205.063-.205.08-.205.102-.185.126-.206.122-.185.163-.165.165-.182.165-.146.205-.142.205-.145.225-.123.245-.102.268-.123.288-.083.308-.06.327-.062.348-.063.39-.04.391-.02h.698l.245.02h.245l.227.02.245.043.226.04.205.04.225.043.185.04.205.062.185.083.165.06.163.082.165.083.143.082.165.103.122.102.123.103.122.123.126.122.102.142.103.146.102.142.08.146.083.162.062.165.083.185.06.183.043.185.04.205.039.205.023.205-3.242.185-.02-.185-.063-.142-.039-.165-.063-.163-.083-.125-.08-.103-.082-.122-.103-.083-.122-.08-.103-.062-.145-.063-.123-.04-.165-.04-.142-.023-.166-.02h-.47l-.122.02-.125.043-.103.02-.103.04-.079.063-.083.062-.083.06-.062.063-.04.083-.04.08-.043.082-.02.063-.02.082v.163l.02.062.02.083.02.04.043.063.04.06.042.062.06.06.083.043.083.06.122.042.123.06.165.043.185.06.182.042.228.04.533.123.513.125.47.122.41.123.39.123.351.122.285.125.268.143.245.122.228.146.182.122.185.162.185.146.143.185.145.162.123.186.082.185.103.185.082.205.06.205.043.205.04.206.02.225.02.225-.02.267-.02.265-.063.248-.06.245-.082.245-.103.248-.122.225-.123.225-.165.225-.185.205-.163.186-.205.185-.228.165-.225.162-.245.146-.248.102-.285.103-.287.103-.308.08-.328.062-.35.063-.348.04-.39.02h-.738l-.35-.02-.308-.02-.308-.02-.307-.043-.265-.04-.268-.063-.265-.06-.228-.082-.225-.083-.205-.082-.205-.103-.186-.103-.162-.122-.165-.122-.143-.123-.145-.145-.122-.143-.123-.145-.103-.162-.102-.146-.103-.182-.082-.145-.083-.186-.08-.162-.062-.185-.063-.185-.04-.186-.04-.205-.043-.205-.039-.205-.02-.205zm11.609-7.425h10.442v2.75h-3.51v8.367h-3.424v-8.367h-3.508v-2.75zm16.801-.205.307.02h.348l.308.04.307.04.308.063.288.062.287.063.268.103.268.082.268.123.225.122.245.123.225.165.205.143.205.165.185.185.186.185.165.205.165.225.143.205.142.226.123.244.102.245.103.245.082.268.083.288.083.288.039.288.04.307.02.308.02.308v.82l-.04.45-.02.225-.02.206-.02.205-.039.205-.063.205-.04.185-.063.185-.04.185-.062.166-.083.185-.082.165-.063.143-.103.165-.082.142-.083.165-.122.123-.083.142-.103.123-.122.142-.123.123-.122.122-.123.103-.122.103-.143.122-.122.103-.143.102-.165.083-.142.082-.165.083-.143.083-.185.082-.165.063-.186.063-.185.062-.165.04-.205.063-.205.04-.185.02-.206.04-.205.02-.225.02-.225.02h-.553v-2.565l.123-.02h.142l.123-.02.122-.02.123-.02.122-.02.123-.04.103-.04.102-.039.103-.063.082-.062.103-.063.082-.063.103-.082.063-.083.102-.083.063-.102.063-.103.062-.102.063-.143.063-.122.04-.143.062-.142.02-.165.04-.143.04-.185.02-.185.02-.185.04-.43v-.821l-.04-.348-.02-.165-.04-.165-.02-.165-.04-.143-.04-.142-.04-.123-.062-.122-.063-.123-.063-.122-.062-.103-.063-.102-.083-.103-.082-.083-.083-.082-.082-.083-.103-.063-.083-.062-.102-.063-.103-.063-.102-.04-.123-.04-.102-.04-.123-.02-.122-.02-.123-.02-.122-.019h-.123l-.103-.02v-2.604l-.002-.006zm-5.764 5.764v-.328l.02-.327.02-.308.04-.328.063-.288.062-.287.083-.288.082-.268.103-.268.123-.245.102-.225.143-.245.142-.225.165-.205.165-.205.206-.185.185-.205.205-.166.205-.165.225-.142.245-.143.225-.122.268-.103.245-.102.268-.103.288-.063.287-.062.288-.063.308-.04.327-.04h.308l.328-.02h.04v2.604h-.04l-.123.02h-.122l-.123.02-.122.02-.123.02-.102.02-.103.04-.102.04-.103.04-.103.062-.102.063-.083.063-.102.082-.083.083-.083.083-.082.082-.083.103-.063.102-.062.103-.083.122-.04.123-.062.142-.04.123-.04.165-.04.143-.04.165-.02.185-.02.165-.02.39-.02.41.02.411.02.37.02.186.02.165.04.165.04.143.04.165.04.122.062.143.04.122.083.123.062.102.063.103.083.102.082.083.083.083.083.082.102.083.083.063.102.062.103.063.103.04.102.04.123.04.102.02.123.02.122.02.123.02h.122l.143.02v2.563h-.348l-.43-.04-.43-.04-.391-.062-.205-.04-.185-.04-.185-.062-.185-.063-.166-.04-.165-.063-.165-.062-.143-.083-.165-.083-.142-.082-.143-.083-.142-.102-.143-.103-.122-.103-.143-.102-.122-.123-.123-.122-.122-.123-.123-.142-.102-.123-.103-.142-.102-.143-.103-.165-.102-.142-.103-.185-.083-.166-.062-.165-.083-.185-.082-.185-.063-.185-.04-.206-.063-.205-.04-.205-.039-.205-.04-.225-.02-.225-.02-.205-.02-.245v-.473h-.006zm18.522-5.559h.37l.348.02.327.02.308.04.308.083.268.063.267.082.245.083.226.122.225.123.185.122.205.143.185.165.185.142.166.186.165.185.142.185.143.205.102.225.123.225.102.205.103.245.082.245.083.245.063.245.04.268.04.268.039.268.04.268.02.287.02.268v.718l-.02.41-.04.39-.04.348-.062.328-.063.308-.082.287-.103.268-.103.245-.122.205-.123.225-.122.226-.165.205-.166.185-.142.185-.185.165-.185.166-.186.142-.185.122-.185.123-.205.102-.205.083-.185.083-.206.062-.287.063-.268.063-.268.063-.268.04-.245.04-.245.02-.245.02h-.225v-2.585h.103l.165-.04.165-.04.143-.04.122-.062.103-.063.122-.083.083-.082.102-.103.083-.122.083-.103.082-.122.063-.166.063-.165.062-.165.04-.205.02-.245.04-.245.02-.288v-1.026l-.02-.41-.02-.165-.02-.185-.04-.166-.02-.142-.04-.165-.039-.123-.063-.142-.04-.103-.063-.122-.062-.103-.063-.082-.083-.103-.062-.083-.083-.062-.103-.063-.082-.083-.103-.062-.102-.04-.103-.04-.122-.04-.123-.063-.122-.02-.083-.02v-2.584h.003zm-5.108 0h5.108v2.584l-.063-.02-.122-.02h-.166l-.142-.02h-.165l-.166-.02h-.86v6.092h1.108l.245-.02.225-.02.103-.02v2.584h-5.108V17.541l.003-.003zm18.216 9.272h-1.949v-2.4h1.231l-1.231-4v-2.872h1.909l4.185 11.117h-3.61l-.532-1.846h-.003zm-1.949 0h-1.969l-.532 1.845h-3.508l4.166-11.117h1.846v2.872l-1.231 4h1.231v2.4h-.003zm4.758-9.272h3.795l2.256 3.733 2.237-3.733h3.795L166.815 24v4.655h-3.447V24l-4.308-6.462zM26.59 33.313h.308l.245.02h.205l.165.04.165.02.123.04.142.063.123.082.122.083.083.102.102.123.083.122.04.083.04.063.02.063.02.082.02.165.02.143v.102l-.02.083-.02.083-.02.102-.02.063-.02.083-.04.082-.04.083-.063.062-.062.083-.063.063-.063.062-.062.063-.083.04-.063.04-.082.04.102.04.123.04.082.062.103.04.083.063.082.082.083.063.063.083.062.082.04.103.063.082.02.083.04.123v.082l.02.123v.287l-.04.166-.04.165-.063.165-.102.166-.103.142-.063.063-.062.062-.063.063-.083.04-.062.04-.083.062-.083.04-.082.02-.083.04-.102.02-.103.02h-.083l-.185.02h-.268l-.37.02h-.165v-.883h.575l.103-.02.122-.02.083-.04.102-.063.083-.082.02-.04.04-.04.02-.063.02-.04.02-.122.02-.123-.02-.122-.02-.103-.02-.082-.063-.103-.062-.063-.083-.062-.083-.063-.102-.04-.143-.04-.185-.02-.268-.02h-.165v-.86h.328l.122-.02.123-.02.102-.04.103-.04.082-.082.04-.04.02-.04.02-.04.04-.04.02-.122.02-.103-.02-.123-.02-.102-.04-.083-.062-.082-.083-.083-.083-.04-.102-.04-.123-.02h-.122l-.185-.02h-.186v-.86l.029-.026zm-2.051 0h2.05v.86h-1.005v1.192h1.006v.86h-1.006v1.373h1.006v.883h-2.051v-5.168zm7.669 5.168v-.552l-.04.06-.063.082-.06.063-.082.06-.063.042-.06.06-.082.063-.083.04-.082.043-.08.02-.103.04-.082.022-.083.02-.103.02h-.347l-.103-.02-.082-.02-.083-.023-.082-.04-.06-.02-.103-.042-.063-.04-.062-.04-.06-.063-.063-.062-.06-.06-.042-.063-.04-.06-.02-.082-.043-.063-.02-.102-.02-.083-.043-.103-.02-.225V34.75h.986v2.071l.02.268.02.206.02.142.023.083.04.06.082.062.06.083.063.04.083.02.102.022h.245l.103-.023.102-.04.123-.082.082-.06.083-.082.063-.083.04-.103.04-.142.022-.228v-.285l.02-.35V34.75h.983v3.732h-.923zm1.949-4.245v-.923h.986v.923h-.986zm0 4.245V34.75h.986v3.732h-.986z" clip-rule="evenodd"/><path d="M37.154 33.313h-.986v5.168h.986v-5.168z"/><path fill-rule="evenodd" d="M41.604 38.481h-.923v-.552l-.04.082-.082.083-.063.063-.063.062-.062.063-.083.04-.063.063-.082.02-.166.082-.142.04h-.04v-.738h.083l.082-.02.083-.02.083-.02.062-.062.063-.04.063-.063.082-.063.04-.082.04-.083.04-.102.04-.103.02-.102.02-.123.02-.142v-.288l-.02-.143-.02-.142-.02-.103-.02-.122-.04-.103-.063-.082-.04-.083-.062-.063-.063-.062-.083-.04-.062-.04-.083-.04-.082-.02-.083-.02h-.083v-.718h.04l.143.04.142.063.123.062.122.103.123.102.122.123v-1.866h.986v5.168l.011-.009zm-1.806.04-.123.04h-.307l-.166-.02-.142-.062-.142-.04-.143-.083-.122-.083-.123-.102-.102-.123-.123-.142-.083-.142-.082-.166-.083-.165-.04-.205-.04-.205-.02-.205v-.45l.02-.226.04-.205.04-.185.083-.165.063-.165.102-.143.103-.142.102-.103.123-.102.142-.083.123-.083.165-.04.142-.04.166-.02h.307l.123.02v.719h-.103l-.082.02-.063.02-.083.04-.082.04-.063.04-.063.062-.062.063-.063.082-.04.083-.04.082-.04.103-.02.102-.02.123v.123l-.02.142.02.142v.123l.02.142v.103l.04.102.02.103.02.063.04.082.063.103.082.063.063.062.083.063.082.063.103.02.102.02h.103v.737zm2.792-4.285v-.923h.986v.923h-.986zm0 4.245V34.75h.986v3.732h-.986zm5.413 0h-.983v-2.193l-.043-.205v-.186l-.04-.102-.04-.103-.042-.062-.04-.06-.063-.063-.102-.04-.06-.042-.103-.02h-.102l-.125.02-.123.022-.102.04-.103.063-.103.08-.06.082-.062.103-.04.102-.063.146-.02.182v.248l-.02.288v1.7h-.985V34.75h.923v.533l.142-.142.126-.126.142-.122.142-.083.166-.06.165-.062.182-.02h.331l.162.02.145.042.143.04.122.063.103.06.102.102.083.083.063.083.06.102.042.103.02.122.02.123.02.165.02.162v2.544zm2.627.761h.165l.165-.02.063-.02.063-.02.062-.02.063-.02.063-.04.04-.082.062-.063.02-.082.02-.083.02-.083v-.122l.02-.165v-.553l-.123.165-.122.103-.123.102-.142.103-.142.063-.143.04h-.02v-.758h.063l.082-.02.083-.02.083-.04.082-.02.063-.063.063-.04.082-.082.04-.083.063-.083.04-.082.02-.103.04-.102.02-.123.02-.122v-.288l-.02-.122-.02-.123-.02-.103-.04-.122-.04-.083-.04-.082-.063-.083-.063-.063-.062-.062-.083-.04-.062-.04-.083-.04-.083-.02-.082-.02h-.083v-.738l.063.02.165.063.142.063.123.082.142.103.123.122.122.143v-.513h.923v3.652l-.02.288-.02.103-.02.122-.02.083-.02.102-.062.143-.082.142-.083.123-.083.102-.122.083-.103.082-.142.063-.166.063-.185.04-.185.04-.225.02h-.268v-.758l-.008-.009zm-1.724-.513 1.128.143.02.082.04.083.04.063.04.04.083.04.102.04.122.02h.143v.757h-.205l-.205-.02-.205-.02-.166-.04-.165-.04-.142-.062-.123-.063-.102-.083-.103-.082-.083-.083-.062-.102-.063-.103-.04-.102-.04-.103-.02-.123v-.244l.006.002zm1.724-.287-.143.02-.165.02-.185-.02-.165-.02-.083-.02-.083-.02-.082-.04-.083-.04-.063-.04-.082-.04-.063-.063-.083-.04-.102-.142-.123-.142-.082-.123-.063-.142-.082-.143-.04-.165-.04-.165-.02-.165-.02-.166v-.41l.02-.225.04-.205.04-.185.082-.166.063-.165.102-.142.103-.143.122-.102.123-.103.123-.082.142-.083.142-.04.143-.04.165-.02h.43v.738h-.102l-.083.02-.083.02-.082.04-.063.04-.063.04-.062.062-.063.063-.063.083-.04.062-.04.103-.04.102-.02.103-.02.122v.533l.02.143.02.102.04.103.04.102.04.083.063.063.063.082.063.04.062.063.063.04.082.02.083.02.063.02h.122v.757l.012-.002zm6.892-5.129h.102l.39.02.328.02.143.02.122.02.123.02.102.04.083.02.102.063.083.062.063.04.082.063.083.082.04.083.063.083.062.082.04.103.04.102.04.083.02.123.02.102v.348l-.02.142-.02.123-.04.142-.04.103-.063.122-.062.103-.083.082-.102.103-.103.083-.102.062-.123.083-.143.04-.142.062-.142.02-.166.04.166.083.142.122.123.103.122.123.123.142.142.185.165.225.166.288.635 1.006h-1.25l-.759-1.129-.185-.267-.142-.225-.123-.166-.102-.102V35.5h.082l.268-.02.185-.02.143-.04.082-.02.063-.062.083-.063.062-.062.04-.083.04-.102.02-.083v-.123l-.02-.122-.02-.123-.04-.082-.063-.083-.082-.082-.083-.063-.102-.04-.123-.04h-.533v-.883l-.005.008zm-2.091 5.168v-5.168h2.09v.884h-1.045v1.313h1.046v1.088l-.063-.082-.083-.04-.082-.063-.083-.02-.102-.02-.123-.02-.122-.02h-.39v2.154h-1.046l.003-.006zm7.384-1.187.986.165-.04.122-.083.143-.063.102-.062.103-.083.102-.082.103-.103.063-.083.082-.122.083-.103.04-.122.062-.123.02-.122.04-.143.02-.142.02h-.205v-.738h.165l.103-.02.102-.04.083-.062.082-.083.063-.083.04-.102.063-.142h-.006zm-.698-2.627h.142l.205.02.186.04.165.062.165.083.143.102.142.103.123.122.062.083.04.063.063.082.04.103.082.165.063.205.063.225.02.245.02.245v.288h-1.724v-.615h.758l-.02-.103-.02-.102-.02-.083-.02-.083-.02-.082-.04-.063-.04-.082-.04-.063-.062-.04-.063-.04-.063-.04-.062-.04-.063-.02-.083-.02-.062-.02h-.083v-.737l.003-.003zm0 3.897h-.185l-.103-.02-.123-.02-.102-.02-.103-.02-.102-.04-.083-.04-.082-.04-.103-.04-.063-.04-.082-.082-.063-.04-.083-.082-.062-.063-.063-.083-.103-.122-.062-.142-.063-.143-.063-.165-.02-.165-.04-.186-.02-.185v-.41l.04-.205.02-.205.063-.185.063-.186.082-.165.103-.142.103-.143.142-.122.123-.103.142-.102.142-.063.166-.063.165-.04.185-.02h.225v.738h-.062l-.083.02-.083.02-.062.02-.063.04-.063.04-.062.04-.063.062-.04.063-.04.063-.04.082-.02.063-.04.083v.102l-.02.083v.102h.738v.616h-.757l.02.102v.103l.02.103.02.082.04.083.04.082.062.063.04.063.062.062.063.04.063.063.082.02.063.02.083.02.082.02h.02v.738l.009-.009zm3.937-3.897h.37l.143.02h.122l.123.02.103.04.102.02.083.04.142.082.143.102.04.04.062.063.04.04.02.083.04.062.04.063.02.102.02.103.02.245v1.886l.02.165.02.143.02.102.04.123.04.142.082.123h-.986l-.04-.123-.063-.165-.02-.083v-.04l-.142.123-.122.103-.143.082-.142.063-.143.063-.062.02v-.656h.02l.062-.02.063-.02.122-.062.123-.083.082-.063.063-.082.063-.083.04-.102v-.063l.02-.103v-.513l-.103.04-.142.04-.143.04-.205.04-.063.02v-.635h.02l.268-.063.225-.063.143-.062V35.8l-.02-.123-.02-.04-.02-.04-.04-.04-.02-.04-.04-.02-.04-.02-.062-.04h-.063l-.142-.04h-.186v-.737l.003.006zm-.655 1.21-.903-.165.04-.122.062-.123.04-.122.063-.103.063-.102.082-.083.083-.063.082-.082.103-.063.123-.063.102-.04.142-.02.143-.04.142-.02h.288v.739h-.122l-.123.02-.082.04-.103.062-.063.04-.062.083-.063.102-.04.123.003.002zm.655 2.647-.102.02-.143.02h-.308l-.122-.02-.142-.02-.103-.04-.123-.04-.102-.04-.083-.062-.102-.083-.063-.082-.083-.083-.062-.102-.04-.103-.04-.083-.02-.122-.02-.103v-.122l.02-.143.02-.142.04-.143.082-.122.083-.123.083-.102.122-.083.123-.082.165-.063.165-.063.225-.063.245-.04.288-.062v.635l-.123.02-.142.04-.123.04-.082.04-.04.04-.04.04-.04.02-.02.062-.02.04-.02.04v.205l.02.103.063.082.063.083.04.04.04.02.04.02.062.02.103.04h.225v.655l-.009.011z" clip-rule="evenodd"/><path d="M69.667 33.313H68.66v5.168h1.006v-5.168z"/><path fill-rule="evenodd" d="M74.752 33.313h.288l.268.02h.205l.165.04.143.02.142.04.123.063.142.082.103.083.102.102.103.123.083.122.04.083.02.063.02.063.02.082.04.165.02.143v.102l-.02.083-.02.083-.02.102-.02.063-.04.083-.04.082-.04.083-.04.062-.063.083-.063.063-.062.062-.063.063-.082.04-.083.04-.083.04.123.04.102.04.103.062.083.04.102.063.083.082.062.063.083.083.063.082.04.103.04.082.04.083.02.123.02.082.02.123v.102l-.02.185-.02.166-.063.165-.063.165-.083.166-.122.142-.04.063-.063.062-.063.063-.082.04-.063.04-.082.062-.083.04-.083.02-.102.04-.083.02-.102.02h-.103l-.185.02h-.268l-.348.02h-.165v-.883h.576l.102-.02.103-.02.102-.04.103-.063.063-.082.04-.04.02-.04.02-.063.02-.04.04-.122.02-.123-.02-.122-.02-.103-.04-.082-.04-.103-.063-.063-.083-.062-.082-.063-.103-.04-.142-.04-.186-.02-.267-.02h-.166v-.86h.328l.103-.02.122-.02.123-.04.082-.04.083-.082.04-.04.04-.04.02-.04.02-.04.04-.122v-.226l-.02-.102-.04-.083-.083-.082-.063-.083-.082-.04-.123-.04-.122-.02H75.1l-.185-.02h-.185v-.86l.022-.026zm-2.05 0h2.05v.86h-1.005v1.192h1.005v.86h-1.005v1.373h1.005v.883h-2.05v-5.168zm7.672 5.168v-.552l-.063.06-.06.082-.063.063-.06.06-.062.042-.083.06-.06.063-.082.04-.103.043-.082.02-.083.04-.083.022-.08.02-.102.02h-.37l-.083-.02-.083-.02-.08-.023-.082-.04-.083-.02-.082-.042-.06-.04-.083-.04-.042-.063-.06-.062-.063-.06-.04-.063-.042-.06-.04-.082-.02-.063-.043-.102-.02-.083-.02-.103-.02-.225V34.75h.983v2.338l.023.206.02.142.04.083.062.06.04.062.063.083.082.04.08.02.103.022h.228l.122-.023.103-.04.102-.082.103-.06.083-.082.06-.083.042-.103.02-.142.02-.228.02-.285V34.75h1.006v3.732h-.923zm1.601-1.065.983-.145.02.062.022.063.02.06.04.063.02.04.043.062.06.04.042.043.04.04.063.02.06.02.062.022.083.02.06.02h.35l.163-.02.062-.02.063-.023.06-.04.063-.02.04-.062.042-.06.02-.082.02-.063-.02-.06v-.063l-.02-.04-.043-.042-.04-.02-.062-.04-.103-.023-.122-.04-.288-.063-.245-.06-.248-.062-.205-.06-.162-.063-.146-.062-.122-.06-.103-.043-.102-.102-.083-.08-.08-.083-.062-.102-.063-.123-.02-.102-.02-.126v-.265l.02-.102.02-.123.043-.102.06-.083.062-.102.083-.083.082-.083.103-.102.123-.06.122-.043.143-.06.145-.022.185-.04h.738l.162.02.145.02.123.042.142.04.103.063.103.04.082.082.083.063.082.08.083.102.04.083.063.103.04.122.04.125-.924.163-.04-.103-.062-.082-.06-.08-.083-.063-.082-.063-.123-.04-.122-.02h-.328l-.145.02-.083.02-.04.02-.062.023-.04.04-.063.04-.02.043-.02.04-.02.062.02.04v.063l.04.04.043.043.04.02.062.04.083.02.102.042.285.083.35.08.186.042.182.04.166.043.142.06.145.062.103.06.103.063.082.063.08.08.063.062.04.083.062.102.02.083.02.102.023.123v.225l-.023.122-.02.123-.06.102-.063.103-.082.125-.083.103-.102.08-.103.102-.142.063-.123.063-.165.04-.162.04-.186.042-.185.02h-.39l-.185-.02-.143-.02-.165-.043-.142-.04-.143-.042-.125-.06-.123-.083-.102-.082-.103-.083-.082-.102-.08-.103-.063-.103-.063-.122-.06-.123-.02-.122zm4.347-3.18v-.923h.986v.923h-.986zm0 4.245V34.75h.986v3.732h-.986zm5.396 0h-.986v-2.398l-.02-.186-.043-.102-.04-.103-.04-.062-.062-.06-.063-.063-.06-.04-.102-.042-.083-.02h-.102l-.123.02-.122.022-.103.04-.102.063-.103.08-.082.082-.063.103-.04.102-.02.146-.043.182v2.236h-1.005V34.75h.923v.533l.125-.142.123-.126.162-.122.145-.083.163-.06.165-.062.165-.02h.348l.142.02.165.042.123.04.122.063.126.06.08.102.102.083.063.083.04.102.042.103.04.122.02.123.023.165v2.706zm3.18-1.187.986.165-.04.122-.063.143-.063.102-.082.103-.083.102-.082.103-.083.063-.103.082-.102.083-.123.04-.102.062-.123.02-.142.04-.123.02-.165.02h-.185v-.738h.165l.103-.02.102-.04.083-.062.062-.083.063-.083.063-.102.04-.142h-.003zm-.678-2.627h.142l.205.02.166.04.185.062.142.083.165.102.123.103.123.122.062.083.063.063.04.082.062.103.083.165.063.205.04.225.04.245.02.245v.288H94.22v-.615h.738v-.103l-.02-.102-.02-.083-.02-.083-.02-.082-.04-.063-.063-.082-.04-.063-.062-.04-.04-.04-.063-.04-.063-.04-.082-.02-.063-.02-.063-.02h-.082v-.737l.003-.003zm0 3.897h-.185l-.123-.02-.103-.02-.122-.02-.083-.02-.102-.04-.103-.04-.082-.04-.083-.04-.083-.04-.082-.082-.063-.04-.063-.082-.062-.063-.083-.083-.082-.122-.063-.142-.063-.143-.063-.165-.04-.165-.04-.186v-.185l-.02-.185.02-.225.02-.205.04-.205.04-.185.083-.186.083-.165.082-.142.123-.143.122-.122.143-.103.142-.102.143-.063.165-.063.165-.04.165-.02h.245v.738h-.082l-.063.02-.083.02-.082.02-.063.04-.063.04-.04.04-.062.062-.063.063-.04.063-.02.082-.04.063-.02.083-.02.102v.186h.739v.615h-.758v.102l.02.103.02.103.02.082.04.083.04.082.04.063.039.063.083.062.062.04.063.063.063.02.082.02.063.02.083.02h.04v.738l.014-.009zm2.174-1.148 1.005-.145.02.062.02.063.023.06.02.063.04.04.042.062.04.04.063.043.04.04.04.02.063.02.082.022.06.02.083.02h.327l.166-.02.082-.02.06-.023.063-.04.04-.02.062-.062.04-.06.023-.082v-.123l-.023-.063-.02-.04-.02-.042-.04-.02-.082-.04-.103-.023-.103-.04-.287-.063-.268-.06-.225-.062-.205-.06-.163-.063-.165-.062-.122-.06-.083-.043-.103-.102-.102-.08-.083-.083-.06-.102-.042-.123-.04-.102-.02-.126v-.265l.02-.102.04-.123.042-.102.04-.083.063-.102.08-.083.102-.083.103-.102.102-.06.146-.043.142-.06.145-.022.163-.04h.761l.142.02.165.02.123.042.122.04.123.063.082.04.103.082.083.063.06.08.082.102.063.083.04.103.062.122.02.125-.923.163-.04-.103-.043-.082-.06-.08-.082-.063-.082-.063-.123-.04-.123-.02h-.33l-.162.02-.063.02-.06.02-.043.023-.06.04-.042.04-.04.043-.02.04v.102l.02.063.02.04.063.043.04.02.062.04.08.02.102.042.268.083.37.08.183.042.185.04.165.043.143.06.122.062.126.06.08.063.102.063.063.08.062.062.06.083.043.102.04.083.02.102.02.123v.225l-.02.122-.04.123-.063.102-.04.103-.082.125-.083.103-.102.08-.123.102-.123.063-.145.063-.142.04-.166.04-.182.042-.185.02h-.39l-.186-.02-.162-.02-.165-.043-.143-.04-.125-.042-.122-.06-.123-.083-.103-.082-.102-.083-.103-.102-.062-.103-.06-.103-.063-.122-.06-.123-.042-.122zm4.019 0 1.006-.145v.062l.02.063.042.06.04.063.02.04.043.062.04.04.043.043.059.04.063.02.04.02.083.022.062.02.08.02h.351l.142-.02.083-.02.062-.023.04-.04.063-.02.04-.062.062-.06.02-.082v-.186l-.02-.04-.042-.042-.06-.02-.063-.04-.082-.023-.123-.04-.288-.063-.265-.06-.228-.062-.205-.06-.182-.063-.145-.062-.123-.06-.082-.043-.123-.102-.083-.08-.082-.083-.06-.102-.043-.123-.04-.102-.02-.126v-.265l.02-.102.02-.123.043-.102.06-.083.063-.102.082-.083.103-.083.102-.102.103-.06.142-.043.123-.06.165-.022.162-.04h.741l.163.02.145.02.142.042.123.04.122.063.083.04.103.082.082.063.083.08.06.102.062.083.04.103.063.122.04.125-.943.163-.04-.103-.043-.082-.06-.08-.082-.063-.103-.063-.103-.04-.142-.02h-.308l-.165.02-.063.02-.059.02-.063.023-.04.04-.043.04-.04.043-.02.04v.102l.02.063.04.04.043.043.04.02.063.04.082.02.103.042.265.083.37.08.185.042.163.04.165.043.162.06.126.062.102.06.103.063.102.063.06.08.063.062.06.083.042.102.04.083.02.102v.123l.023.102-.023.123-.02.122-.02.123-.04.102-.062.103-.083.125-.082.103-.103.08-.122.102-.123.063-.142.063-.146.04-.162.04-.185.042-.186.02h-.41l-.165-.02-.162-.02-.166-.043-.142-.04-.123-.042-.145-.06-.102-.083-.123-.082-.083-.083-.082-.102-.103-.103-.06-.103-.062-.122-.04-.123-.043-.122zm6.382-4.103h1.046v3.342l.019.185v.146l.04.06.023.082.02.083.04.06.043.042.06.06.042.063.06.063.063.04.082.04.06.022.103.02.082.02.103.02h.103l.102.02.103-.02h.102l.083-.02.102-.02.083-.02.06-.023.063-.04.082-.04.04-.042.063-.06.02-.043.04-.06.042-.062.02-.04.02-.083v-.062l.04-.143.023-.205v-3.385h1.045v2.727l-.02.41v.37l-.042.288-.02.225-.02.103-.043.102-.02.083-.04.083-.042.08-.06.062-.043.083-.04.06-.063.062-.059.063-.083.06-.063.063-.182.102-.165.083-.103.02-.102.04-.103.02-.142.042h-.126l-.142.02h-.636l-.145-.02-.142-.02-.143-.023-.125-.04-.103-.02-.102-.042-.103-.04-.102-.04-.06-.063-.083-.062-.082-.04-.06-.063-.063-.06-.063-.082-.102-.123-.08-.165-.063-.123-.04-.165-.042-.225-.04-.328-.02-.347v-3.16zm8.615 5.168h-.985v-2.193l-.02-.205-.02-.186-.023-.102-.04-.103-.04-.062-.063-.06-.062-.063-.08-.04-.083-.042-.082-.02h-.103l-.122.02-.123.022-.102.04-.126.063-.08.08-.082.082-.063.103-.04.102-.042.146-.02.182-.02.248v1.988h-.986V34.75h.923v.533l.125-.142.143-.126.122-.122.166-.083.142-.06.185-.062.165-.02h.348l.142.02.146.042.142.04.123.063.125.06.08.102.082.083.063.083.06.102.043.103.02.122.02.123.042.165v2.706zm4.451 0h-.924v-.552l-.062.082-.063.083-.063.063-.082.062-.063.063-.063.04-.082.063-.083.02-.142.082-.166.04h-.039v-.738h.082l.103-.02.062-.02.083-.02.063-.062.082-.04.063-.063.063-.063.04-.082.062-.083.04-.102.04-.103.02-.102.02-.123v-.142l.02-.123-.02-.165v-.143l-.02-.142-.02-.103-.04-.122-.04-.103-.04-.082-.062-.083-.063-.063-.063-.062-.062-.04-.083-.04-.063-.04-.082-.02-.103-.02h-.082v-.718h.039l.143.04.142.063.143.062.122.103.123.102.102.123v-1.866h1.006v5.168l.012-.009zm-1.827.04-.102.04h-.328l-.142-.02-.166-.062-.122-.04-.143-.083-.122-.083-.142-.102-.103-.123-.103-.142-.102-.142-.083-.166-.062-.165-.04-.205-.04-.205-.02-.205-.02-.225.02-.226.02-.225.04-.205.04-.185.062-.165.083-.165.082-.143.103-.142.123-.103.122-.102.123-.083.142-.083.142-.04.166-.04.142-.02h.328l.102.02v.719h-.082l-.083.02-.083.02-.082.04-.063.04-.082.04-.063.062-.063.063-.04.082-.04.083-.062.082-.02.103-.04.102-.02.123v.533l.02.142.02.103.02.102.02.103.04.063.039.082.063.103.063.062.082.063.083.063.083.062.082.02.123.02h.082v.738l.003-.003zM123 37.294l.986.165-.04.122-.062.143-.063.102-.083.103-.082.102-.083.103-.083.063-.102.082-.103.083-.122.04-.123.062-.102.02-.143.04-.142.02-.143.02h-.185v-.738h.165l.103-.02.083-.04.082-.062.083-.083.063-.083.062-.102.04-.142H123zm-.678-2.627h.143l.185.02.185.04.165.062.166.083.142.102.143.103.122.122.063.083.062.063.04.082.063.103.063.165.082.205.04.225.04.245.02.245v.288h-1.724v-.615h.738l-.02-.103v-.102l-.02-.083-.02-.083-.039-.082-.02-.063-.063-.082-.04-.063-.063-.04-.04-.04-.062-.04-.083-.04-.062-.02-.063-.02-.063-.02h-.082v-.737l.002-.003zm0 3.897h-.205l-.102-.02-.103-.02-.102-.02-.123-.02-.083-.04-.082-.04-.103-.04-.082-.04-.083-.04-.083-.082-.062-.04-.083-.082-.063-.063-.062-.083-.083-.122-.083-.142-.062-.143-.04-.165-.04-.165-.04-.186-.02-.185v-.185l.02-.225.02-.205.02-.205.063-.185.082-.186.083-.165.083-.142.122-.143.123-.122.142-.103.123-.102.165-.063.142-.063.185-.04.166-.02h.245v.738h-.083l-.083.02-.062.02-.083.02-.063.04-.062.04-.04.04-.063.062-.062.063-.04.063-.04.082-.02.063-.02.083-.02.102v.186h.738v.615h-.758v.102l.02.103.02.103.02.082.04.083.02.082.062.063.063.063.04.062.063.04.062.063.083.02.082.02.063.02.083.02h.04v.738l.005-.009zm3.467-.083h-.985V34.75h.923v.533l.122-.185.103-.143.102-.102.103-.083.103-.04.102-.042.103-.02h.287l.083.02.083.02.082.022.08.02.083.04.062.043-.307.86-.103-.062-.122-.04-.126-.04h-.205l-.08.02-.102.04-.063.042-.083.06-.059.103-.063.122-.04.146-.023.185-.04.265v.37l-.02.43v1.148zm1.519-1.065 1.003-.145.023.062.02.063.02.06.02.063.042.04.04.062.04.04.043.043.06.04.042.02.06.02.083.022.063.02.082.02h.328l.162-.02.063-.02.082-.023.06-.04.043-.02.06-.062.043-.06.02-.082v-.123l-.02-.063-.02-.04-.023-.042-.06-.02-.063-.04-.102-.023-.103-.04-.288-.063-.264-.06-.226-.062-.205-.06-.185-.063-.145-.062-.123-.06-.102-.043-.103-.102-.082-.08-.06-.083-.083-.102-.04-.123-.042-.102-.02-.126v-.265l.02-.102.019-.123.043-.102.06-.083.083-.102.062-.083.083-.083.122-.102.103-.06.123-.043.165-.06.142-.022.165-.04h.738l.163.02.145.02.142.042.123.04.103.063.125.04.08.082.082.063.083.08.063.102.059.083.043.103.04.122.04.125-.923.163-.04-.103-.04-.082-.063-.08-.082-.063-.103-.063-.102-.04-.123-.02h-.327l-.166.02-.06.02-.062.02-.04.023-.063.04-.04.04-.042.043-.02.04v.102l.02.063.02.04.062.043.04.02.063.04.082.02.103.042.288.083.347.08.185.042.163.04.185.043.123.06.145.062.102.06.123.063.083.063.059.08.063.062.063.083.04.102.039.083.023.102.02.123v.102l-.02.123v.122l-.042.123-.04.102-.083.103-.063.125-.079.103-.103.08-.125.102-.123.063-.142.063-.146.04-.162.04-.185.042-.185.02h-.391l-.182-.02-.165-.02-.165-.043-.143-.04-.142-.042-.126-.06-.122-.083-.103-.082-.082-.083-.103-.102-.06-.103-.082-.103-.04-.122-.063-.123-.04-.122zm6.091-2.666v.777h-.678v1.993l.023.06v.022l.02.04.02.02.04.02.042.043.02.02h.185l.083-.02.123-.043.122-.04.083.78-.186.06-.185.063-.205.02h-.347l-.123-.02-.125-.043-.103-.02-.102-.06-.08-.042-.083-.06-.043-.083-.039-.062-.04-.103-.043-.102-.02-.103-.02-.122V37.6l-.02-.205v-1.867h-.453v-.779h.453v-.76l1.003-.573v1.333h.678zm2.071-.083h.391l.142.02h.122l.103.02.123.04.082.02.103.04.142.082.143.102.04.04.039.063.04.04.04.083.02.062.04.063.02.102.02.103.02.245.02.308-.02 1.148v.225l.02.205v.165l.02.143.04.102.04.123.039.142.063.123h-.986l-.04-.123-.039-.165-.04-.083v-.04l-.123.123-.142.103-.143.082-.142.063-.143.063-.062.02v-.656h.02l.062-.02.063-.02.142-.062.123-.083.063-.063.082-.082.04-.083.04-.102.02-.063.02-.103v-.513l-.103.04-.142.04-.165.04-.186.04-.082.02v-.635h.04l.268-.063.205-.063.165-.062V35.8l-.04-.123-.02-.04-.02-.04-.02-.04-.04-.04-.02-.02-.062-.02-.063-.04h-.063l-.142-.04h-.185v-.737l.008.006zm-.655 1.21-.883-.165.02-.122.062-.123.063-.122.063-.103.062-.102.063-.083.103-.063.082-.082.103-.063.102-.063.123-.04.142-.02.123-.04.165-.02h.268v.739h-.123l-.102.02-.103.04-.082.062-.063.04-.063.083-.062.102-.063.123v.002zm.655 2.647-.082.02-.166.02h-.287l-.143-.02-.122-.02-.123-.04-.102-.04-.103-.04-.103-.062-.082-.083-.083-.082-.082-.083-.04-.102-.04-.103-.04-.083-.02-.122-.02-.103v-.268l.02-.142.063-.142.062-.123.083-.123.103-.102.102-.083.143-.082.142-.063.185-.063.205-.062.245-.04.288-.063v.635l-.122.02-.143.04-.122.04-.083.04-.04.04-.04.04-.02.02-.02.062-.04.04-.02.04v.205l.04.103.04.083.083.082.02.04.04.02.062.02.04.02.103.04h.225v.655l-.006.014zm6.032-.043h-.986v-2.193l-.02-.205-.02-.186-.02-.102-.043-.103-.039-.062-.063-.06-.06-.063-.083-.04-.082-.042-.083-.02h-.102l-.123.02-.122.022-.123.04-.083.063-.102.08-.083.082-.06.103-.042.102-.04.146-.02.182-.023.248v1.988h-.983V34.75H139v.533l.143-.142.122-.126.146-.122.142-.083.165-.06.183-.062.165-.02h.327l.166.02.162.042.125.04.143.063.102.06.083.102.083.083.06.083.062.102.04.103.02.122.043.123v.165l.02.162v2.544zm4.45 0h-.923v-.552l-.063.082-.063.083-.062.063-.063.062-.083.063-.062.04-.083.063-.083.02-.142.082-.165.04h-.04v-.738h.082l.083-.02.083-.02.082-.02.063-.062.083-.04.062-.063.063-.063.063-.082.04-.083.039-.102.04-.103.02-.102.02-.123v-.142l.02-.123-.02-.165v-.143l-.02-.142-.02-.103-.04-.122-.039-.103-.04-.082-.063-.083-.063-.063-.062-.062-.063-.04-.083-.04-.062-.04-.103-.02-.083-.02h-.082v-.718h.04l.142.04.143.063.142.062.123.103.102.102.123.123v-1.866h1.005v5.168l.012-.009zm-1.826.04-.123.04h-.308l-.142-.02-.165-.062-.123-.04-.142-.083-.123-.083-.142-.102-.103-.123-.122-.142-.083-.142-.083-.166-.062-.165-.063-.205-.02-.205-.02-.205-.02-.225.02-.226.02-.225.02-.205.063-.185.062-.165.083-.165.083-.143.102-.142.123-.103.122-.102.123-.083.142-.083.143-.04.165-.04.142-.02h.328l.103.02v.719h-.083l-.083.02-.082.02-.063.04-.083.04-.082.04-.063.062-.04.063-.062.082-.063.083-.04.082-.02.103-.04.102v.123l-.02.123v.41l.02.142.02.103.02.102.02.103.04.063.04.082.062.103.063.062.083.063.082.063.083.062.102.02.103.02h.083v.738l.003-.003zm2.791-4.285v-.923h.986v.923h-.986zm0 4.245V34.75h.986v3.732h-.986zm5.417 0h-.986v-2.193l-.02-.205-.02-.186-.023-.102-.04-.103-.04-.062-.062-.06-.063-.063-.08-.04-.082-.042-.083-.02h-.102l-.123.02-.122.022-.126.04-.08.063-.102.08-.083.082-.062.103-.04.102-.043.146-.02.182v.248l-.02.288v1.7h-.986V34.75h.903v.533l.146-.142.122-.126.143-.122.165-.083.142-.06.186-.062.165-.02h.327l.163.02.165.042.123.04.122.063.125.06.08.102.083.083.062.083.06.102.043.103.02.122.04.123v.165l.023.162v2.544zm2.643.761h.165l.166-.02.062-.02.063-.02.063-.02.04-.02.062-.04.063-.082.04-.063.04-.082.02-.083.02-.083v-.84l-.123.165-.102.103-.143.102-.122.103-.166.063-.142.04v-.758h.04l.082-.02.103-.02.063-.04.082-.02.063-.063.083-.04.062-.082.063-.083.04-.083.04-.082.04-.103.039-.102v-.123l.02-.122v-.288l-.02-.122v-.123l-.039-.103-.04-.122-.04-.083-.04-.082-.063-.083-.04-.063-.082-.062-.063-.04-.083-.04-.062-.04-.103-.02-.082-.02h-.063v-.718h.063l.142.063.142.063.143.082.142.103.123.122.102.143v-.513h.924v3.652l-.02.288-.02.103-.02.122-.02.083-.02.102-.063.143-.063.142-.082.123-.103.102-.102.083-.123.082-.142.063-.143.063-.185.04-.185.04-.225.02h-.268v-.758l-.003-.009zm-1.723-.513 1.128.143.02.082.02.083.04.063.039.04.103.04.083.04.122.02h.165v.757h-.205l-.225-.02-.185-.02-.185-.04-.165-.04-.143-.062-.122-.063-.103-.083-.083-.082-.102-.083-.063-.102-.063-.103-.039-.102-.02-.103-.02-.123v-.244l.003.002zm1.723-.287-.165.02-.143.02-.185-.02-.185-.02-.083-.02-.082-.02-.083-.04-.082-.04-.063-.04-.063-.04-.082-.063-.063-.04-.123-.142-.122-.142-.083-.123-.062-.142-.063-.143-.063-.165-.02-.165-.04-.165v-.166l-.019-.185.019-.225.02-.225.02-.205.063-.185.063-.166.082-.165.083-.142.122-.143.103-.102.123-.103.142-.082.142-.083.123-.04.165-.04.143-.02h.327l.123.02v.718h-.123l-.082.02-.063.02-.083.04-.082.04-.063.04-.063.062-.062.063-.063.083-.04.062-.04.103-.02.102-.02.103-.02.122-.02.123v.288l.02.122.02.143.02.102.02.103.04.102.04.083.063.063.062.082.063.04.063.063.082.04.063.02.083.02.082.02h.123v.757l.011-.002z" clip-rule="evenodd"/></g><defs><clipPath id="a"><path fill="#fff" d="M.784 0h170.359v40H.784z"/></clipPath></defs></svg>