<svg xmlns="http://www.w3.org/2000/svg" width="230" height="20" fill="none"><path fill="#fff" d="M3.156 19.434c1.603-.007 2.633-.067 3.108-.172.463-.112.74-.417.825-.916.09-.498.112-5.068.076-13.709L7.061.734 4.915.747c-1.19.12-2.095.527-2.723 1.211C1.493 2.744.904 3.513.719 5.3H.576L.546.208 8.934.204l8.568-.039.024 5.135h-.063c-.318-1.898-.481-1.995-.715-2.519-.634-1.39-1.81-2.077-3.53-2.07l-2.402.01-.043 4.408.03 6.28c.016 4.564.044 6.97.072 7.213.036.248.424.431 1.174.569.744.132 1.646.2 2.685.191l.149.322-11.876.052.15-.322zm19.937.31-3.785-.07-4 .082v-.394c1.643-.011 2.523-.17 2.616-.48.04-.109.065-.538.078-1.296.01-.754.012-1.802.004-3.138l-.013-3.1-.007-1.927-.004-.608-.002-.459-.002-.38.002-.288c-.007-.628-.04-1.002-.11-1.124-.102-.3-.971-.446-2.619-.439v-.421l4.124.065 3.662-.099.004.42c-1.397.006-2.18.15-2.35.424-.091.249-.132 2.136-.115 5.662l6.325-.03-.01-1.185-.003-.934c-.007-2.051-.056-3.224-.158-3.515-.104-.296-.89-.431-2.374-.43l.002-.417 3.593.07 4.217-.106.002.42c-1.633.006-2.495.15-2.584.43-.09.276-.13 1.844-.112 4.7l.004 1.29c.015 4.025.074 6.165.173 6.432.102.262.957.39 2.573.383l.004.422-4.091-.067-3.716.082-.005-.405c1.413-.004 2.194-.142 2.344-.424.114-.195.162-2.224.141-6.073l-6.323.026c.014 3.8.08 5.811.17 6.03.062.156.381.264.965.331.195.015.663.052 1.38.12v.42zm12.382-.88c.094-.294.137-1.789.124-4.481l-.009-3.123c-.013-2.917-.069-4.518-.162-4.804-.089-.284-.97-.426-2.628-.42l-.006-.333c.786-.005 1.906-.01 3.359-.016 1.45-.006 2.499-.013 3.162-.013l6.508-.028.03 5.488h-.36c-.233-2.139-.688-3.532-1.367-4.173-.672-.643-1.939-.964-3.799-.955l-1.159.006c-.503.031-.793.117-.858.273-.11.227-.158 2.168-.145 5.826l.847.018c1.174-.005 1.988-.27 2.426-.796.437-.52.658-1.516.65-2.97h.335l.037 8.127h-.336c-.002-1.488-.216-2.532-.626-3.132-.405-.606-1.132-.902-2.148-.898l-1.18.004c.017 3.98.075 6.142.171 6.493.06.223.91.332 2.564.325 1.784-.01 3.017-.353 3.71-1.042.754-.745 1.291-2.204 1.602-4.388h.336l.016 3.741.028 2.122-7.687-.048-6.053.089v-.439c1.652-.009 2.521-.16 2.618-.453zm20.137-.358c.132-.411.188-2.503.175-6.278l-.024-4.366c-.012-4.087-.086-6.326-.221-6.727-.125-.401-1.357-.594-3.679-.587L51.858.08a9901.327 9901.327 0 0 1 9.121-.04L70.101 0l.037 7.68-.503.004c-.33-2.997-.965-4.94-1.906-5.845C66.778.934 64.999.49 62.399.5c-.547.004-1.084.008-1.615.01-.71.043-1.11.175-1.21.392-.153.312-.218 3.03-.194 8.148l1.181.02c1.65-.003 2.778-.378 3.395-1.108.624-.732.92-2.124.913-4.156l.469-.002.048 11.377-.468.004c-.01-2.085-.3-3.549-.872-4.388-.577-.844-1.577-1.26-3.017-1.254l-1.651.003c.028 5.57.106 8.596.245 9.087.082.317 1.282.464 3.591.459 2.492-.012 4.221-.498 5.196-1.462 1.058-1.04 1.803-3.086 2.235-6.137l.476-.002.022 5.236.041 2.974-10.762-.072-8.475.128.002-.619c2.301-.007 3.522-.217 3.663-.631zm27.857-4.81c.004 1.972-.451 3.502-1.386 4.593-.928 1.096-2.229 1.642-3.906 1.655-1.916.004-3.458-.63-4.62-1.906-1.16-1.28-1.749-2.997-1.76-5.159-.006-2.244.585-4.078 1.78-5.508 1.19-1.43 2.712-2.146 4.533-2.152.683-.005 1.283.114 1.787.351.516.244 1.022.641 1.521 1.204l.197-.003c.194-.279.37-.556.533-.835a7.15 7.15 0 0 0 .422-.928l.316.001.026 6.638-.379.004c-.459-4.05-1.912-6.07-4.338-6.056-1.207.007-2.13.592-2.757 1.768-.624 1.176-.933 2.911-.918 5.211.013 4.643 1.347 6.96 3.989 6.952 1.384-.009 2.49-.527 3.335-1.547.84-1.026 1.256-2.41 1.248-4.154v-.127l.377-.002zm4.427-6.407c-.627 1.139-.934 2.803-.932 4.994.013 2.302.34 4.085 1.001 5.36.652 1.27 1.548 1.905 2.657 1.902 2.426-.013 3.632-2.18 3.619-6.499-.011-2.411-.333-4.265-.96-5.55-.621-1.283-1.494-1.925-2.616-1.92-1.214.002-2.137.576-2.769 1.713zm.156 12.109a6.419 6.419 0 0 1-2.106-1.54 7.169 7.169 0 0 1-1.42-2.335 7.863 7.863 0 0 1-.512-2.767 8.281 8.281 0 0 1 .576-3.1c.384-.977.93-1.83 1.642-2.557 1.235-1.261 2.729-1.898 4.479-1.902 1.39-.007 2.668.459 3.816 1.406.841.692 1.492 1.56 1.973 2.605a8.093 8.093 0 0 1 .708 3.346c.016 2.047-.64 3.79-1.955 5.222-1.313 1.436-2.903 2.157-4.756 2.168a5.84 5.84 0 0 1-2.445-.546zm7.66-.017c1.142-.176 1.895-.503 2.253-.979.322-.416.483-1.185.478-2.288l-.008-.697-.202-8.026c-.268-.57-.593-.947-.987-1.128-.393-.178-1.001-.269-1.824-.263l-.004-.34 2.281.035 2.265-.007 7.567 9.831-.028-5.806c-.004-1.408-.186-2.363-.529-2.866-.428-.597-1.277-.892-2.547-.888V5.62l3.013.033 2.995-.015.002.294c-1.174.005-1.923.306-2.259.908-.235.42-.344 1.338-.34 2.746l.018 4.817c.006.695.032 1.67.078 2.912.047 1.24.075 2.14.076 2.684h-.421a25.385 25.385 0 0 0-1.226-1.941c-.24-.359-.846-1.173-1.821-2.434l-5.95-7.771.178 7.665c.015 1.453.223 2.445.631 2.987.418.546 1.256.808 2.507.805l.003.377-2.638-.03c-.407.002-1.033.022-1.885.061a56.03 56.03 0 0 1-1.676.056v-.394zm17.13-12.094c-.626 1.145-.936 2.805-.929 4.994.015 2.302.339 4.09.996 5.36.654 1.276 1.537 1.91 2.659 1.906 2.432-.015 3.637-2.18 3.615-6.504-.011-2.412-.331-4.258-.955-5.546-.628-1.29-1.495-1.928-2.618-1.92-1.211.001-2.14.577-2.768 1.71zm.156 12.113a6.522 6.522 0 0 1-2.11-1.542 7.271 7.271 0 0 1-1.414-2.335 7.883 7.883 0 0 1-.513-2.768 8.287 8.287 0 0 1 .573-3.1 7.637 7.637 0 0 1 1.642-2.56c1.239-1.257 2.727-1.892 4.473-1.9 1.399-.003 2.67.465 3.818 1.409a6.951 6.951 0 0 1 1.969 2.602 8.077 8.077 0 0 1 .718 3.346c.013 2.051-.647 3.79-1.959 5.226-1.307 1.434-2.896 2.159-4.748 2.166a5.81 5.81 0 0 1-2.449-.544zm10.911-12.96.212 8.914c.009 1.581.173 2.63.498 3.144.39.613 1.209.92 2.454.916l-.004.312-1.794-.013a42.414 42.414 0 0 0-2.081.072 52.63 52.63 0 0 1-2.006.069l.001-.335c.955-.001 1.632-.19 2.016-.56.387-.37.576-.99.569-1.853l.001-.087-.183-8.026c-.004-1.116-.168-1.882-.487-2.287-.323-.41-.981-.617-1.977-.61V5.74l2.189.011 3.284-.015 3.218 10.018h.165l3.045-10.047c.175 0 .431 0 .766-.004l.711-.002 1.869-.01 2.304-.01v.379c-1.592.009-2.421.12-2.492.338-.065.215-.098.884-.094 1.997l.004.505.035 7.496c-.006.476.005.987.007 1.539 0 .555.026.893.078 1.016.119.282.955.42 2.519.409v.336l-3.916-.026-4.018.016v-.293c1.376-.007 2.19-.05 2.417-.137.226-.082.344-.402.34-.965l-.043-11.812-.334.004-2.009 6.588c-.955 3.127-1.575 5.354-1.857 6.686l-.734.006-4.309-13.324-.364.002zm17.985 12.444c.058-.17.097-.886.119-2.15.026-1.26.032-3.059.021-5.392-.019-2.88-.073-4.477-.18-4.797-.108-.321-.976-.477-2.609-.468l-.004-.381c.781-.004 1.763.002 2.945.02 1.178.015 1.772.026 1.793.025.135 0 .635-.015 1.482-.038a70.14 70.14 0 0 1 1.908-.04v.379c-1.648.007-2.521.165-2.625.479-.108.32-.15 2.304-.132 5.963.019 3.965.084 6.096.199 6.397.115.3.985.442 2.621.438v.418l-4.066-.067-4.063.086-.004-.405c1.642-.004 2.504-.158 2.595-.466zm15.432-.595c-.937 1.094-2.235 1.644-3.909 1.655-1.917.006-3.452-.626-4.618-1.906-1.165-1.278-1.751-3-1.762-5.157-.007-2.25.584-4.08 1.776-5.512 1.193-1.427 2.707-2.144 4.539-2.15.685-.003 1.28.114 1.793.352.514.24 1.014.639 1.519 1.202h.195c.192-.28.366-.562.53-.842.154-.28.303-.585.422-.923l.312.003.031 6.636-.377.004c-.462-4.05-1.91-6.068-4.34-6.058-1.22.007-2.13.594-2.757 1.767-.626 1.18-.934 2.913-.921 5.212.017 4.643 1.356 6.962 3.983 6.95 1.392-.003 2.497-.52 3.34-1.543.836-1.028 1.256-2.408 1.251-4.154V13.7l.373-.003c.011 1.972-.446 3.5-1.38 4.592zm8.817 1.142c1.609-.006 2.643-.067 3.115-.171.463-.112.747-.413.827-.916.091-.5.113-5.068.074-13.707l-.106-3.9-2.14.006c-1.191.123-2.097.528-2.723 1.215-.697.784-1.189 1.054-1.474 3.46h-.145l-.027-5.21 8.384-.011 8.561-.035.027 5.255h-.055c-.242-1.995-.485-2.118-.723-2.641C179.106 1.388 177.932.7 176.21.71l-2.404.009-.039 4.408.03 6.282c.018 4.566.044 6.966.076 7.21.033.247.418.434 1.167.566.754.136 1.649.203 2.688.194l.149.323-11.87.054.136-.325zm14.908-.547c.056-.163.095-.882.116-2.145.022-1.266.033-3.066.02-5.394-.015-2.875-.072-4.475-.178-4.796-.11-.32-.977-.472-2.614-.468V5.7c.782 0 1.767.005 2.948.02 1.178.019 1.771.024 1.785.022.14.002.636-.01 1.485-.037.858-.024 1.49-.04 1.913-.04l-.003.378c-1.645.012-2.52.17-2.622.482-.113.315-.148 2.307-.134 5.963.019 3.965.082 6.096.197 6.396.106.298.987.444 2.62.439l.005.42-4.074-.067-4.057.08-.002-.4c1.633-.007 2.495-.163 2.595-.472zm8.787-12.463.204 8.914c.009 1.583.171 2.632.494 3.149.392.61 1.215.916 2.456.91v.316l-1.806-.017a52.51 52.51 0 0 0-2.065.074c-.911.049-1.58.067-2.016.071v-.336c.968-.004 1.638-.19 2.016-.561.384-.372.577-.987.574-1.852l-.006-.088-.175-8.027c-.003-1.111-.17-1.88-.49-2.287-.323-.41-.979-.613-1.975-.61l.004-.354 2.187.009 3.277-.015 3.219 10.025.173-.004 3.036-10.049c.18 0 .434-.004.771-.002l.715-.004 1.861-.009 2.306-.007-.004.375c-1.585.007-2.421.119-2.484.338-.072.214-.102.883-.098 2.003l.008.501.026 7.495.01 1.544c0 .548.033.884.091 1.012.111.279.944.416 2.515.407v.338l-3.916-.028-4.024.013.004-.288c1.375-.005 2.183-.052 2.415-.135.232-.086.34-.407.336-.968l-.048-11.807h-.326l-2.011 6.585c-.951 3.132-1.569 5.361-1.856 6.688l-.733.003-4.312-13.324-.353.002zm17.952 12.443c.093-.292.138-1.787.127-4.485l-.014-3.117c-.008-2.917-.063-4.524-.156-4.806-.095-.288-.968-.424-2.633-.418v-.336c.784-.008 1.901-.012 3.352-.019a671.49 671.49 0 0 0 3.162-.015l6.519-.024.018 5.486h-.359c-.232-2.135-.685-3.532-1.36-4.173-.672-.644-1.943-.962-3.804-.953l-1.16.004c-.499.032-.789.123-.854.279-.11.223-.16 2.166-.145 5.82l.841.019c1.182-.004 1.988-.271 2.428-.793.443-.524.656-1.52.654-2.967l.331-.004.039 8.128h-.338c-.008-1.49-.212-2.532-.624-3.136-.405-.6-1.128-.9-2.15-.896l-1.177.006c.014 3.977.074 6.138.172 6.487.054.229.911.335 2.566.327 1.776-.007 3.013-.356 3.712-1.044.754-.74 1.284-2.203 1.59-4.382l.342-.002.016 3.743.03 2.126-7.688-.056-6.051.093-.008-.442c1.652-.004 2.531-.157 2.622-.45zm11.819 1.08-.028-6.344.314-.002c.496 1.953 1.222 3.437 2.183 4.464.96 1.016 2.084 1.53 3.37 1.524.88-.002 1.583-.255 2.108-.755.517-.5.768-1.159.766-1.967-.004-1.052-.407-1.83-1.217-2.33-.539-.332-1.618-.696-3.246-1.087-1.625-.391-2.803-.895-3.533-1.508-.829-.695-1.241-1.665-1.249-2.894.002-1.134.387-2.068 1.174-2.81.783-.737 1.795-1.109 3.029-1.114 1.438-.004 2.712.624 3.829 1.891a2.63 2.63 0 0 0 .731-.749c.179-.287.324-.678.435-1.163l.212-.001.02 5.419-.287.005c-.322-1.582-.92-2.82-1.81-3.698-.89-.894-1.958-1.333-3.179-1.325-.908.004-1.629.23-2.157.678-.525.45-.791 1.055-.789 1.81.006.863.412 1.515 1.224 1.943.615.332 1.758.663 3.42.983 1.659.319 2.874.808 3.625 1.462.832.711 1.246 1.735 1.254 3.078.004 1.299-.411 2.367-1.252 3.206-.842.833-1.917 1.25-3.235 1.262-1.508.004-2.846-.728-4.003-2.203-.686.406-1.189 1.15-1.503 2.225h-.206z"/></svg>