<svg xmlns="http://www.w3.org/2000/svg" width="119" height="40" fill="none"><g clip-path="url(#a)"><mask id="b" width="118" height="40" x="0" y="0" maskUnits="userSpaceOnUse" style="mask-type:luminance"><path fill="#fff" d="M117.851.34H.204v39.54H117.85V.34z"/></mask><g fill="#fff" mask="url(#b)"><path d="M117.851.34v39.54H.204V.34H117.85zm-2.297 2.275H2.876c-.436 0-.395-.05-.395.399v34.16c0 .49-.05.422.418.422h112.655V2.616z"/><path d="M54.642 29.626h-3.098c-.068-.263-.141-.537-.209-.813-.494-2.045-.996-4.09-1.483-6.136-.054-.224-.132-.315-.375-.303-.452.022-.905.006-1.359.006-.305 0-.305 0-.305.317v6.926h-2.856V10.44c.088-.005.175-.014.262-.014 1.508 0 3.017-.004 4.524 0 .732 0 1.444.12 2.115.424 1.196.544 1.826 1.521 2.069 2.77.077.404.117.814.122 1.225.016 1.038.01 2.074 0 3.111-.014 1.232-.494 2.268-1.371 3.123-.133.129-.156.244-.112.41a4012.5 4012.5 0 0 1 1.993 7.766c.028.114.052.234.083.371zm-6.815-10.09h1.705c.116.002.232-.004.346-.018.697-.105 1.339-.759 1.357-1.465.03-1.11.03-2.22-.004-3.33-.025-.785-.559-1.301-1.342-1.342-.643-.034-1.286-.018-1.925-.02a.537.537 0 0 0-.137.036v6.14zm47.321 10.251c-.102.006-.167.013-.232.013-.865 0-1.731-.007-2.595.006-.208.003-.283-.07-.329-.263-.528-2.198-1.06-4.395-1.598-6.59a1.63 1.63 0 0 1-.046-.192c-.017-.145-.097-.188-.236-.187-.51.006-1.021.01-1.533 0-.193-.004-.233.073-.232.247.008.88.004 1.762.004 2.64v4.315h-2.839V10.694a1.09 1.09 0 0 1 .179-.027c1.598 0 3.197-.012 4.794.015.93.015 1.813.241 2.572.813.845.637 1.263 1.526 1.412 2.542.07.53.103 1.064.1 1.598.006.954.01 1.91-.04 2.863-.057 1.072-.531 1.976-1.291 2.724-.171.169-.202.313-.144.538a1575.71 1575.71 0 0 1 1.994 7.762c.023.08.04.16.06.265zm-6.797-10.056c.67 0 1.303.029 1.933-.008.796-.046 1.461-.722 1.483-1.519a56.01 56.01 0 0 0-.003-3.183c-.026-.827-.479-1.312-1.309-1.4-.586-.063-1.183-.031-1.775-.038-.329-.003-.329 0-.329.317v5.831zm-56.999.301v5.237c-.004 2.26-1.53 4.105-3.748 4.532-2.497.484-4.934-1.197-5.367-3.706a4.662 4.662 0 0 1-.066-.786c-.005-3.524-.005-7.047 0-10.57 0-2.164 1.516-4.06 3.641-4.476a4.578 4.578 0 0 1 5.548 4.46c-.027 1.77-.008 3.54-.008 5.31zm-3.002-.023V14.7c0-.672-.32-1.172-.904-1.479-.584-.306-1.165-.265-1.709.1-.526.352-.753.862-.752 1.495.006 3.441.007 6.882.003 10.322 0 .083 0 .165.01.247a1.678 1.678 0 0 0 1.967 1.506 1.65 1.65 0 0 0 1.385-1.648c.003-1.744 0-3.49 0-5.234zm56.063.225c0 1.737.004 3.474 0 5.21-.004 2.013-1.226 3.764-3.113 4.353-3.088.967-5.576-1.13-5.969-3.56a4.47 4.47 0 0 1-.054-.714c-.004-3.54-.004-7.08 0-10.62 0-2.45 2.038-4.444 4.492-4.489 2.464-.046 4.125 1.793 4.49 3.363.094.417.144.842.148 1.269.016 1.73.006 3.459.006 5.188zm-6.343-.053v5.211a1.693 1.693 0 0 0 1.18 1.624 1.682 1.682 0 0 0 1.88-.643c.247-.347.303-.74.303-1.149V14.949c-.032-.735-.367-1.281-1.052-1.562-1.112-.456-2.305.367-2.309 1.582-.006 1.738-.002 3.475-.002 5.212zm-44.475-9.743h2.8v14.71c0 .776.378 1.38 1.031 1.652 1.135.475 2.335-.336 2.336-1.583V10.441h2.99c.004.085.011.172.011.258v14.668c0 2.387-1.895 4.357-4.286 4.476-2.104.105-3.894-1.027-4.612-2.918a4.388 4.388 0 0 1-.281-1.57V10.638c0-.055.006-.113.011-.2zm21.886 14.186 2.694-.193c.04.224.056.445.12.652.141.446.258.907.472 1.317.413.79 1.083 1.115 1.82.963.75-.155 1.356-.841 1.48-1.639.19-1.225-.32-2.187-1.151-3.009-1.001-.989-2.047-1.934-3.041-2.93-.718-.718-1.367-1.504-1.719-2.477-.569-1.578-.58-3.156.178-4.672.619-1.236 1.654-1.961 3.033-2.154 1.055-.149 2.09-.071 3.067.393 1.264.6 1.941 1.658 2.275 2.971.066.262.099.533.144.8.003.05.003.102 0 .152l-2.72.495c-.044-.22-.062-.427-.129-.618-.112-.324-.227-.653-.392-.953-.306-.553-.815-.768-1.432-.73-.588.036-.977.368-1.207.887-.374.847-.322 1.701.027 2.54.327.792.846 1.448 1.477 2.015.631.568 1.282 1.089 1.891 1.665 1.088 1.033 1.973 2.218 2.401 3.679.517 1.763.192 3.386-.931 4.838-.485.627-1.152 1.004-1.907 1.212a5.576 5.576 0 0 1-3.145-.02c-1.308-.396-2.162-1.304-2.713-2.523-.363-.803-.544-1.652-.602-2.53 0-.044.004-.087.01-.131zm-37.531 5h-2.874v-.354c0-2.453-.002-4.905-.005-7.358 0-.205-.033-.408-.098-.601a4745.15 4745.15 0 0 0-3.656-10.53c-.04-.115-.076-.23-.122-.37.087-.007.158-.018.227-.018.898 0 1.796.003 2.694-.005.174 0 .261.041.316.22.59 1.925 1.203 3.843 1.777 5.773.158.532.206 1.097.306 1.647a.26.26 0 0 0 .089.163c.017-.121.043-.242.05-.364.049-1.149.424-2.222.758-3.305.4-1.296.793-2.594 1.181-3.893.055-.183.132-.244.323-.241.897.01 1.795.004 2.693.005.072 0 .144.007.244.012l-.612 1.76c-1.059 3.034-2.116 6.07-3.173 9.105a2.108 2.108 0 0 0-.111.673c-.008 2.444-.005 4.889-.005 7.334l-.002.347zm87.641-18.916-.485 1.403-3.324 9.546c-.053.154-.08.316-.081.48a2630.07 2630.07 0 0 0-.003 7.432v.34h-2.862c-.006-.12-.016-.232-.016-.344 0-2.437-.008-4.873.005-7.31.002-.464-.18-.864-.324-1.28a4346.544 4346.544 0 0 0-3.483-10.04l-.075-.232c.083-.007.153-.018.222-.018.906 0 1.812.004 2.72-.006.174 0 .243.056.292.215.59 1.916 1.2 3.827 1.772 5.75.162.547.213 1.128.316 1.695.009.046.021.092.04.174.034-.05.063-.074.064-.099.049-1.443.538-2.784.952-4.143l1.034-3.396c.036-.12.074-.198.228-.198.964.008 1.929.004 2.891.005.04.006.079.014.117.026zm-31.146-.025v2.855h-2.72c-.325 0-.326 0-.326.321v15.92h-2.856V13.55H65.49v-2.868l8.955.002z"/></g></g><defs><clipPath id="a"><path fill="#fff" d="M.176 0H119v40H.176z"/></clipPath></defs></svg>