<svg xmlns="http://www.w3.org/2000/svg" width="131" height="30" fill="none"><g clip-path="url(#a)"><path fill="#fff" d="M16.748 6.845v16.31a6.917 6.917 0 1 0 13.834 0V6.845a6.917 6.917 0 1 0-13.834 0zm4.951 16.31V6.845a1.878 1.878 0 0 1 2.039-1.894 1.834 1.834 0 0 1 1.893 1.894v16.31a1.922 1.922 0 0 1-1.893 1.893 1.964 1.964 0 0 1-2.039-1.893zM70.485.291h-13.98v4.952h4.514v24.32h4.952V5.243h4.514V.29zm14.564 0v22.864a1.893 1.893 0 0 1-3.787 0V.291h-5.097v22.864a6.99 6.99 0 1 0 13.98 0V.291H85.05zm45.291 4.952V.29h-12.233v29.272h12.233v-4.951h-7.282v-7.573h4.66v-4.952h-4.66V5.243h7.282zm-78.495 24.32h-5.243l-3.64-13.835a3.976 3.976 0 0 0 3.203-3.932V7.282a1.995 1.995 0 0 0-2.039-2.04h-1.893v24.321h-4.951V.291h6.844a6.932 6.932 0 0 1 6.99 6.7v4.66a7.82 7.82 0 0 1-2.767 6.407l3.496 11.505zM107.039.291v16.02L101.942.29h-5.097v29.272h5.097V15.291l4.66 14.272h5.534V.291h-5.097zM0 .728V30h5.243V17.476h4.806v-4.952H5.243V5.68h7.572V.728H0z"/></g><defs><clipPath id="a"><path fill="#fff" d="M0 0h130.34v30H0z"/></clipPath></defs></svg>